<svg xmlns="http://www.w3.org/2000/svg" viewBox="0 0 1200 630" width="1200" height="630" role="img">
<defs><pattern id="g" width="40" height="40" patternUnits="userSpaceOnUse"><path d="M40 0H0V40" fill="none" stroke="#d8d0bd" stroke-width="1" opacity=".55"/></pattern></defs>
<rect width="1200" height="630" fill="#f4efe4"/><rect width="1200" height="630" fill="url(#g)"/>
<rect x="24" y="24" width="1152" height="582" fill="none" stroke="#c9c1ac" stroke-width="1"/>
<g transform="translate(150 105)">
  <rect width="900" height="420" fill="#fbf9f4" stroke="#0e1b2e" stroke-width="2.5" rx="3"/>
  <path d="M0 52H900" stroke="#d8d0bd" stroke-width="2"/>
  <g fill="#d8d0bd"><circle cx="28" cy="26" r="6"/><circle cx="50" cy="26" r="6"/><circle cx="72" cy="26" r="6"/></g>
  <rect x="300" y="14" width="300" height="24" rx="12" fill="#f4efe4"/>
  <g transform="translate(32 80)">
    <rect width="250" height="96" fill="#fbf9f4" stroke="#d8d0bd" stroke-width="2"/><rect width="250" height="96" fill="#0e1b2e"/>
    <rect x="22" y="22" width="70" height="8" fill="#b8893b"/><rect x="22" y="48" width="150" height="20" fill="#ede8db" opacity=".9"/>
    <path d="M22 84H228" stroke="#ede8db" stroke-width="3" opacity=".25"/>
  </g>
  <g transform="translate(306 80)"><rect width="250" height="96" fill="#fbf9f4" stroke="#d8d0bd" stroke-width="2"/><rect x="22" y="22" width="70" height="8" fill="#b8893b"/><rect x="22" y="48" width="120" height="20" fill="#e3dcc9"/></g>
  <g transform="translate(580 80)"><rect width="288" height="96" fill="#fbf9f4" stroke="#d8d0bd" stroke-width="2"/><rect x="22" y="22" width="70" height="8" fill="#b8893b"/><rect x="22" y="48" width="170" height="20" fill="#e3dcc9"/></g>
  <g transform="translate(32 200)">
    <rect width="520" height="190" fill="#fbf9f4" stroke="#d8d0bd" stroke-width="2"/>
    <g fill="#e3dcc9"><rect x="34" y="104" width="34" height="62"/><rect x="88" y="84" width="34" height="82"/><rect x="142" y="94" width="34" height="72"/><rect x="196" y="64" width="34" height="102"/><rect x="250" y="74" width="34" height="92"/><rect x="304" y="48" width="34" height="118"/><rect x="358" y="58" width="34" height="108"/></g>
    <rect x="412" y="28" width="34" height="138" fill="#b8893b"/><rect x="466" y="40" width="34" height="126" fill="#b8893b" opacity=".55"/>
    <path d="M51 92L105 70L159 82L213 50L267 62L321 36L375 44L429 18L483 30" fill="none" stroke="#0e1b2e" stroke-width="3.5" stroke-linejoin="round" stroke-linecap="round"/>
    <g fill="#0e1b2e"><circle cx="51" cy="92" r="5"/><circle cx="213" cy="50" r="5"/><circle cx="375" cy="44" r="5"/><circle cx="483" cy="30" r="5"/></g>
  </g>
  <g transform="translate(580 200)">
    <rect width="288" height="190" fill="#fbf9f4" stroke="#d8d0bd" stroke-width="2"/>
    <circle cx="144" cy="95" r="56" fill="none" stroke="#e3dcc9" stroke-width="22"/>
    <circle cx="144" cy="95" r="56" fill="none" stroke="#b8893b" stroke-width="22" stroke-dasharray="130 400" transform="rotate(-90 144 95)"/>
    <circle cx="144" cy="95" r="56" fill="none" stroke="#2f5d50" stroke-width="22" stroke-dasharray="70 400" stroke-dashoffset="-140" transform="rotate(-90 144 95)"/>
  </g>
</g>
</svg>
